<?xml version="1.0" encoding="UTF-8" standalone="no"?>
<!-- Generator: Adobe Illustrator 26.1.0, SVG Export Plug-In . SVG Version: 6.00 Build 0)  -->

<svg
   version="1.1"
   id="LOGO"
   x="0px"
   y="0px"
   viewBox="0 0 1135.4 629.23"
   style="enable-background:new 0 0 1135.4 629.23;"
   xml:space="preserve"
   sodipodi:docname="Logo.svg"
   inkscape:version="1.1.2 (0a00cf5339, 2022-02-04)"
   xmlns:inkscape="http://www.inkscape.org/namespaces/inkscape"
   xmlns:sodipodi="http://sodipodi.sourceforge.net/DTD/sodipodi-0.dtd"
   xmlns:xlink="http://www.w3.org/1999/xlink"
   xmlns="http://www.w3.org/2000/svg"
   xmlns:svg="http://www.w3.org/2000/svg"><defs
   id="defs474" /><sodipodi:namedview
   id="namedview472"
   pagecolor="#ffffff"
   bordercolor="#666666"
   borderopacity="1.0"
   inkscape:pageshadow="2"
   inkscape:pageopacity="0.0"
   inkscape:pagecheckerboard="0"
   showgrid="false"
   inkscape:zoom="1.0520796"
   inkscape:cx="567.44758"
   inkscape:cy="314.13974"
   inkscape:window-width="3440"
   inkscape:window-height="1365"
   inkscape:window-x="0"
   inkscape:window-y="0"
   inkscape:window-maximized="1"
   inkscape:current-layer="LOGO" />
<style
   type="text/css"
   id="style2">
	.st0{fill:#FFFFFF;}
	.st1{clip-path:url(#SVGID_00000044177273408658565080000004795616956130130583_);fill:#243751;}
	.st2{clip-path:url(#SVGID_00000044177273408658565080000004795616956130130583_);}
	.st3{fill:#283E52;}
	.st4{fill:#243751;}
	.st5{fill:#599395;}
	.st6{fill:#3E6575;}
	.st7{fill:#A2C9C5;}
	.st8{fill:#C7DDDA;}
	.st9{fill:#253A58;}
	.st10{fill:#80B9B6;}
	.st11{fill:#64A3A2;}
	.st12{fill:#88B4BB;}
	.st13{fill:#B2D1D4;}
	.st14{fill:#E0E6EA;}
	.st15{fill:#D8E3E4;}
	.st16{fill:#BED3D2;}
	.st17{fill:#E6EBE8;}
	.st18{fill:#F2F0F3;}
	.st19{clip-path:url(#SVGID_00000044177273408658565080000004795616956130130583_);fill:none;}
	.st20{display:none;clip-path:url(#SVGID_00000176753652084659116550000005367020167322161843_);}
	.st21{display:inline;}
</style>
<rect
   id="background"
   x="0"
   y="0"
   class="st0"
   width="1135.4"
   height="629.23"
   style="fill:none" />
<g
   id="g469">
	<g
   id="logo_mark">
		<g
   id="g427">
			<defs
   id="defs6">
				<path
   id="SVGID_1_"
   d="M260.61,143.88c-2.72,0-5.41,0.08-8.08,0.28l0,0c-34.32,2.2-64.85,18.44-85.9,43      c-4.64,5.44-8.82,11.27-12.47,17.48l-1.79,3.08l-0.49,0.88c-0.74,1.4-1.48,2.8-2.17,4.23c-8.16,16.49-12.75,35.09-12.75,54.71      c0,19.62,4.59,38.22,12.75,54.71c0.69,1.43,1.43,2.83,2.17,4.23l0.49,0.88l1.79,3.1l35.06,60.73h63.47l-0.16-0.28l-50.64-87.68      l-1.68-2.94c-5.3-9.73-8.3-20.91-8.3-32.75c0-9.59,1.98-18.71,5.52-27.01c0.82-1.98,1.76-3.87,2.78-5.74l1.68-2.94v0      c12.06-19.78,33.85-33,58.72-33c37.95,0,68.7,30.75,68.7,68.69s-30.75,68.7-68.7,68.7c-2.78,0-5.52-0.16-8.22-0.49l30.83,53.39      c57.48-10.63,101.04-61.03,101.04-121.59C384.26,199.25,328.89,143.88,260.61,143.88z" />
			</defs>
			<clipPath
   id="SVGID_00000173159148419211777630000006442844685851397258_">
				<use
   xlink:href="#SVGID_1_"
   style="overflow:visible;"
   id="use8" />
			</clipPath>
			<path
   style="clip-path:url(#SVGID_00000173159148419211777630000006442844685851397258_);fill:#243751;"
   d="M260.78,143.88     c-2.72,0-5.41,0.08-8.08,0.28l0,0c-34.32,2.2-64.85,18.44-85.9,43c-4.64,5.44-8.82,11.27-12.47,17.48l-1.79,3.08l-0.49,0.88     c-0.74,1.4-1.48,2.8-2.17,4.23c-8.16,16.49-12.75,35.09-12.75,54.71c0,19.62,4.59,38.22,12.75,54.71     c0.69,1.43,1.43,2.83,2.17,4.23l0.49,0.88l1.79,3.1l35.06,60.73h63.47l-0.16-0.28l-50.64-87.68l-1.68-2.94     c-5.3-9.73-8.3-20.91-8.3-32.75c0-9.59,1.98-18.71,5.52-27.01c0.82-1.98,1.76-3.87,2.78-5.74l1.68-2.94v0     c12.06-19.78,33.85-33,58.72-33c37.95,0,68.7,30.75,68.7,68.69s-30.75,68.7-68.7,68.7c-2.78,0-5.52-0.16-8.22-0.49l30.83,53.39     c57.48-10.63,101.04-61.03,101.04-121.59C384.43,199.25,329.06,143.88,260.78,143.88z"
   clip-path="url(#SVGID_00000173159148419211777630000006442844685851397258_)"
   id="path11" />
			<g
   style="clip-path:url(#SVGID_00000173159148419211777630000006442844685851397258_);"
   clip-path="url(#SVGID_00000173159148419211777630000006442844685851397258_)"
   id="g153">
				<polygon
   class="st3"
   points="183.04,219.52 241.72,182.5 262.18,247.42     "
   id="polygon13" />
				<polygon
   class="st4"
   points="184.16,219.37 261.96,247.25 209.8,301.21     "
   id="polygon15" />
				<polygon
   class="st5"
   points="241.72,182.5 280.84,226.57 261.96,247.25     "
   id="polygon17" />
				<polygon
   class="st6"
   points="241.72,182.5 260.61,169.91 280.84,226.57     "
   id="polygon19" />
				<polygon
   class="st7"
   points="260.61,169.91 298.83,212.18 280.84,226.57     "
   id="polygon21" />
				<polygon
   class="st8"
   points="260.61,169.91 307.82,195.54 298.83,212.18     "
   id="polygon23" />
				<polygon
   class="st9"
   points="185.51,169.01 241.72,182.5 184.16,219.37     "
   id="polygon25" />
				<polygon
   class="st10"
   points="185.51,169.01 223.21,164.81 241.72,182.5     "
   id="polygon27" />
				<polygon
   class="st10"
   points="197.43,121.23 223.29,164.96 190.31,155.37     "
   id="polygon29" />
				<path
   class="st10"
   d="M280.84,226.57"
   id="path31" />
				<polygon
   class="st10"
   points="298.83,212.18 335.7,209.63 307.82,195.54     "
   id="polygon33" />
				<polygon
   class="st10"
   points="301.23,244.4 261.96,247.25 280.84,226.57     "
   id="polygon35" />
				<polygon
   class="st11"
   points="280.84,226.57 298.83,212.18 301.23,244.42     "
   id="polygon37" />
				<polygon
   class="st7"
   points="298.83,212.18 321.76,242.75 335.7,209.63     "
   id="polygon39" />
				<polygon
   class="st12"
   points="298.83,212.18 301.23,244.4 321.76,242.75     "
   id="polygon41" />
				<polygon
   class="st13"
   points="335.7,209.63 321.76,242.75 383.67,254.29     "
   id="polygon43" />
				<polygon
   class="st11"
   points="321.76,242.75 313.22,293.57 383.67,254.29     "
   id="polygon45" />
				<polygon
   class="st8"
   points="335.7,209.63 382.17,214.72 383.67,254.29     "
   id="polygon47" />
				<polygon
   class="st14"
   points="335.7,209.63 376.62,204.98 382.17,214.72     "
   id="polygon49" />
				<polygon
   class="st11"
   points="186.86,103.36 223.29,164.96 233.4,120.44     "
   id="polygon51" />
				<polygon
   class="st8"
   points="233.4,120.44 260.61,169.91 223.29,164.96     "
   id="polygon53" />
				<polygon
   class="st11"
   points="223.29,164.96 260.61,169.91 241.72,182.5     "
   id="polygon55" />
				<polygon
   class="st15"
   points="260.61,169.91 233.4,120.44 277.25,131.24     "
   id="polygon57" />
				<polygon
   class="st16"
   points="277.25,131.24 307.82,195.54 260.61,169.91     "
   id="polygon59" />
				<polygon
   class="st17"
   points="307.82,195.54 360.88,183.4 335.7,209.63     "
   id="polygon61" />
				<polygon
   class="st18"
   points="360.88,183.4 376.62,204.98 335.7,209.63     "
   id="polygon63" />
				<polygon
   class="st16"
   points="277.25,131.24 290.74,81.77 233.4,120.44     "
   id="polygon65" />
				<polygon
   class="st16"
   points="186.86,103.36 212.94,65.13 233.4,120.44     "
   id="polygon67" />
				<polygon
   class="st4"
   points="287.59,285.47 301.08,265.69 313.22,293.57     "
   id="polygon69" />
				<polyline
   class="st6"
   points="383.67,254.29 313.22,293.57 383.67,301.06 382.47,254.89 383.67,301.06     "
   id="polyline71" />
				<polygon
   class="st4"
   points="383.67,301.06 410.05,270.48 447.22,277.98     "
   id="polygon73" />
				<polygon
   class="st6"
   points="261.96,247.25 301.08,265.69 274.1,307.96     "
   id="polygon75" />
				<polygon
   class="st8"
   points="261.96,247.25 301.23,244.4 301.08,265.69     "
   id="polygon77" />
				<polygon
   class="st14"
   points="186.86,103.36 212.94,65.13 185.06,45.8     "
   id="polygon79" />
				<polygon
   class="st8"
   points="212.94,65.13 290.74,81.77 233.4,120.44     "
   id="polygon81" />
				<polygon
   class="st7"
   points="212.94,65.13 240.87,40 290.74,81.77     "
   id="polygon83" />
				<polygon
   class="st5"
   points="262.18,247.14 275.33,307.96 209.8,301.21     "
   id="polygon85" />
				<polygon
   class="st5"
   points="301.08,265.69 321.76,242.75 301.23,244.4     "
   id="polygon87" />
				<polygon
   class="st18"
   points="277.25,131.24 360.88,183.4 307.82,195.54     "
   id="polygon89" />
				<polygon
   class="st18"
   points="185.06,45.8 212.94,65.13 240.87,40     "
   id="polygon91" />
				<polygon
   class="st7"
   points="301.08,265.69 313.22,293.57 321.76,242.75     "
   id="polygon93" />
				<path
   class="st5"
   d="M397.98,247.7"
   id="path95" />
				<polygon
   class="st13"
   points="382.17,214.72 431.93,236.8 383.67,254.29     "
   id="polygon97" />
				<polygon
   class="st17"
   points="442.72,166.16 382.17,214.72 431.93,236.8     "
   id="polygon99" />
				<polygon
   class="st18"
   points="376.62,204.98 442.72,166.16 382.17,214.72     "
   id="polygon101" />
				<polygon
   class="st8"
   points="431.93,236.8 456.21,224.92 442.72,166.16     "
   id="polygon103" />
				<polygon
   class="st18"
   points="442.72,166.16 500.88,225.22 456.21,224.92     "
   id="polygon105" />
				<polygon
   class="st8"
   points="456.21,224.92 503.88,259.84 500.88,225.22     "
   id="polygon107" />
				<polygon
   class="st12"
   points="431.93,236.8 410.05,270.48 383.67,254.29     "
   id="polygon109" />
				<polygon
   class="st5"
   points="447.22,277.98 410.05,270.48 431.93,236.8     "
   id="polygon111" />
				<polygon
   class="st6"
   points="383.67,301.06 383.67,254.29 410.05,270.48     "
   id="polygon113" />
				<polygon
   class="st13"
   points="431.93,236.8 435.87,247.92 447.22,277.98 456.21,224.92     "
   id="polygon115" />
				<polygon
   class="st12"
   points="503.88,259.84 447.22,277.98 456.21,224.92     "
   id="polygon117" />
				<polygon
   class="st18"
   points="500.88,225.22 565.93,234.21 503.88,259.84     "
   id="polygon119" />
				<polygon
   class="st17"
   points="503.88,259.84 496.68,286.67 527.26,297.46 565.93,234.21     "
   id="polygon121" />
				<polygon
   class="st13"
   points="447.22,277.98 492.79,301.36 503.88,259.84     "
   id="polygon123" />
				<polygon
   class="st6"
   points="186.56,154.02 223.29,164.96 185.51,169.01     "
   id="polygon125" />
				<polyline
   class="st3"
   points="209.8,301.21 166.63,299.56 184.46,215.32 209.8,302.26     "
   id="polyline127" />
				<polygon
   class="st7"
   points="186.86,103.36 197.43,121.23 190.46,155.07 178.17,151.4     "
   id="polygon129" />
				<polygon
   class="st3"
   points="383.67,301.06 492.79,301.36 447.22,277.98     "
   id="polygon131" />
				<polygon
   class="st17"
   points="377.52,198.69 367.63,181.6 404.05,179.8     "
   id="polygon133" />
				<polygon
   class="st17"
   points="501.21,206.59 479.63,150.61 523.47,181.64     "
   id="polygon135" />
				<polygon
   class="st18"
   points="524.11,136.63 523.66,148.32 509.27,141.58     "
   id="polygon137" />
				<polygon
   class="st17"
   points="285.34,127.49 298.87,79.79 325.18,91.93     "
   id="polygon139" />
				<polygon
   class="st18"
   points="462.06,159.11 471.05,181.6 450.63,164.1     "
   id="polygon141" />
				<polygon
   class="st18"
   points="516.92,134.38 537.15,126.29 526.36,119.09     "
   id="polygon143" />
				<polygon
   class="st18"
   points="260.61,36.28 297.48,67.61 313.67,36.28     "
   id="polygon145" />
				<polygon
   class="st18"
   points="372.61,171.18 390.82,165.79 382.69,155.93     "
   id="polygon147" />
				<polygon
   class="st18"
   points="314.39,108.12 329.22,93.28 349.46,100.7     "
   id="polygon149" />
				<polygon
   class="st18"
   points="286.24,130.79 353.69,140.08 345.3,158.37     "
   id="polygon151" />
			</g>
			
				<rect
   x="190.75"
   y="50.27"
   style="clip-path:url(#SVGID_00000173159148419211777630000006442844685851397258_);fill:none;"
   width="337.25"
   height="224.83"
   clip-path="url(#SVGID_00000173159148419211777630000006442844685851397258_)"
   id="rect155" />
			<g
   style="clip-path:url(#SVGID_00000173159148419211777630000006442844685851397258_);"
   clip-path="url(#SVGID_00000173159148419211777630000006442844685851397258_)"
   id="g425">
				<defs
   id="defs158">
					<rect
   id="SVGID_00000053530764502298763560000007077603123801411972_"
   x="190.75"
   y="50.27"
   width="337.25"
   height="224.83" />
				</defs>
				<clipPath
   id="SVGID_00000093147536525993680150000005381548020942402723_">
					<use
   xlink:href="#SVGID_00000053530764502298763560000007077603123801411972_"
   style="overflow:visible;"
   id="use160" />
				</clipPath>
				<g
   style="display:none;clip-path:url(#SVGID_00000093147536525993680150000005381548020942402723_);"
   clip-path="url(#SVGID_00000093147536525993680150000005381548020942402723_)"
   id="g423">
					<g
   class="st21"
   id="g165">
						<path
   class="st4"
   d="M218.61,102.93c-0.02,0-0.04,0-0.06-0.01L177.4,89.43c-0.07-0.02-0.13-0.09-0.14-0.17        c-0.01-0.08,0.02-0.15,0.09-0.2l35.47-24.1c0.06-0.04,0.13-0.05,0.2-0.02c0.06,0.03,0.11,0.09,0.12,0.16l5.67,37.59        c0.01,0.07-0.02,0.14-0.07,0.19C218.71,102.91,218.66,102.93,218.61,102.93z M177.93,89.17l40.43,13.26l-5.57-36.94        L177.93,89.17z"
   id="path163" />
					</g>
					<g
   class="st21"
   id="g169">
						<path
   class="st4"
   d="M233.4,120.65c-0.06,0-0.12-0.03-0.16-0.07l-15.43-18.35c-0.04-0.05-0.06-0.13-0.04-0.19        c0.02-0.07,0.07-0.12,0.14-0.14l34.99-9.98c0.08-0.03,0.17,0.01,0.22,0.08c0.05,0.07,0.05,0.16,0,0.24l-19.56,28.33        C233.54,120.61,233.48,120.65,233.4,120.65C233.41,120.65,233.41,120.65,233.4,120.65z M218.34,102.2l15.05,17.9l19.08-27.64        L218.34,102.2z"
   id="path167" />
					</g>
					<g
   class="st21"
   id="g173">
						<path
   class="st4"
   d="M290.74,81.98c-0.01,0-0.03,0-0.04,0L212.9,65.34c-0.08-0.02-0.13-0.07-0.15-0.15        c-0.02-0.07,0-0.15,0.06-0.21l27.93-25.13c0.08-0.07,0.19-0.07,0.27,0l49.87,41.77c0.07,0.06,0.09,0.16,0.05,0.25        C290.89,81.93,290.81,81.98,290.74,81.98z M213.38,65.02l76.59,16.38l-49.1-41.13L213.38,65.02z"
   id="path171" />
					</g>
					<g
   class="st21"
   id="g177">
						<path
   class="st4"
   d="M212.32,64.49c0.35-0.35,0.92-0.35,1.27,0c0.35,0.35,0.35,0.92,0,1.27c-0.35,0.35-0.92,0.35-1.27,0        C211.97,65.41,211.97,64.84,212.32,64.49z"
   id="path175" />
					</g>
					<g
   class="st21"
   id="g181">
						<path
   class="st4"
   d="M217.34,101.46c0.35-0.35,0.92-0.35,1.27,0c0.35,0.35,0.35,0.92,0,1.27c-0.35,0.35-0.92,0.35-1.27,0        C216.99,102.37,216.99,101.81,217.34,101.46z"
   id="path179" />
					</g>
					<g
   class="st21"
   id="g185">
						<circle
   class="st4"
   cx="233.4"
   cy="120.44"
   r="0.9"
   id="circle183" />
					</g>
					<g
   class="st21"
   id="g189">
						<path
   class="st4"
   d="M298.91,72.33c0.35-0.35,0.92-0.35,1.27,0c0.35,0.35,0.35,0.92,0,1.27c-0.35,0.35-0.92,0.35-1.27,0        C298.56,73.25,298.56,72.68,298.91,72.33z"
   id="path187" />
					</g>
					<g
   class="st21"
   id="g193">
						<path
   class="st4"
   d="M324.31,73.76c0.35-0.35,0.92-0.35,1.27,0c0.35,0.35,0.35,0.92,0,1.27c-0.35,0.35-0.92,0.35-1.27,0        C323.96,74.68,323.96,74.11,324.31,73.76z"
   id="path191" />
					</g>
					<g
   class="st21"
   id="g197">
						<circle
   class="st4"
   cx="331.32"
   cy="100.24"
   r="0.54"
   id="circle195" />
					</g>
					<g
   class="st21"
   id="g201">
						<path
   class="st4"
   d="M464.99,200.18c0.35-0.35,0.92-0.35,1.27,0c0.35,0.35,0.35,0.92,0,1.27c-0.35,0.35-0.92,0.35-1.27,0        C464.64,201.1,464.64,200.53,464.99,200.18z"
   id="path199" />
					</g>
					<g
   class="st21"
   id="g205">
						<path
   class="st4"
   d="M500.36,224.62c0.35-0.35,0.92-0.35,1.27,0c0.35,0.35,0.35,0.92,0,1.27c-0.35,0.35-0.92,0.35-1.27,0        C500.01,225.54,500.01,224.97,500.36,224.62z"
   id="path203" />
					</g>
					<g
   class="st21"
   id="g209">
						<path
   class="st4"
   d="M431.11,236.16c0.35-0.35,0.92-0.35,1.27,0c0.35,0.35,0.35,0.92,0,1.27c-0.35,0.35-0.92,0.35-1.27,0        C430.76,237.08,430.76,236.51,431.11,236.16z"
   id="path207" />
					</g>
					<g
   class="st21"
   id="g213">
						<path
   class="st4"
   d="M276.43,130.34c0.35-0.35,0.92-0.35,1.27,0c0.35,0.35,0.35,0.92,0,1.27c-0.35,0.35-0.92,0.35-1.27,0        C276.08,131.25,276.08,130.69,276.43,130.34z"
   id="path211" />
					</g>
					<g
   class="st21"
   id="g217">
						<path
   class="st4"
   d="M196.84,120.52c0.35-0.35,0.92-0.35,1.27,0c0.35,0.35,0.35,0.92,0,1.27c-0.35,0.35-0.92,0.35-1.27,0        C196.49,121.44,196.49,120.87,196.84,120.52z"
   id="path215" />
					</g>
					<g
   class="st21"
   id="g221">
						<path
   class="st4"
   d="M314.53,55.96c0.35-0.35,0.92-0.35,1.27,0c0.35,0.35,0.35,0.92,0,1.27c-0.35,0.35-0.92,0.35-1.27,0        C314.18,56.87,314.18,56.31,314.53,55.96z"
   id="path219" />
					</g>
					<g
   class="st21"
   id="g225">
						<path
   class="st4"
   d="M226.74,147.73c0.35-0.35,0.92-0.35,1.27,0c0.35,0.35,0.35,0.92,0,1.27c-0.35,0.35-0.92,0.35-1.27,0        C226.39,148.65,226.39,148.08,226.74,147.73z"
   id="path223" />
					</g>
					<g
   class="st21"
   id="g229">
						<circle
   class="st4"
   cx="290.74"
   cy="81.77"
   r="0.9"
   id="circle227" />
					</g>
					<g
   class="st21"
   id="g233">
						<path
   class="st4"
   d="M344.84,140.49c0.35-0.35,0.92-0.35,1.27,0c0.35,0.35,0.35,0.92,0,1.27c-0.35,0.35-0.92,0.35-1.27,0        C344.49,141.4,344.49,140.84,344.84,140.49z"
   id="path231" />
					</g>
					<g
   class="st21"
   id="g237">
						<path
   class="st4"
   d="M347.96,167.62c0.35-0.35,0.92-0.35,1.27,0c0.35,0.35,0.35,0.92,0,1.27c-0.35,0.35-0.92,0.35-1.27,0        C347.61,168.54,347.61,167.97,347.96,167.62z"
   id="path235" />
					</g>
					<g
   class="st21"
   id="g241">
						<path
   class="st4"
   d="M280.31,225.8c0.35-0.35,0.92-0.35,1.27,0c0.35,0.35,0.35,0.92,0,1.27c-0.35,0.35-0.92,0.35-1.27,0        C279.96,226.72,279.96,226.15,280.31,225.8z"
   id="path239" />
					</g>
					<g
   class="st21"
   id="g245">
						<path
   class="st4"
   d="M381.49,213.98c0.35-0.35,0.92-0.35,1.27,0c0.35,0.35,0.35,0.92,0,1.27c-0.35,0.35-0.92,0.35-1.27,0        C381.14,214.9,381.14,214.33,381.49,213.98z"
   id="path243" />
					</g>
					<g
   class="st21"
   id="g249">
						<path
   class="st4"
   d="M335.07,208.99c0.35-0.35,0.92-0.35,1.27,0c0.35,0.35,0.35,0.92,0,1.27c-0.35,0.35-0.92,0.35-1.27,0        C334.72,209.91,334.72,209.34,335.07,208.99z"
   id="path247" />
					</g>
					<g
   class="st21"
   id="g253">
						<circle
   class="st4"
   cx="260.35"
   cy="169.59"
   r="1.26"
   id="circle251" />
					</g>
					<g
   class="st21"
   id="g257">
						<circle
   class="st4"
   cx="298.68"
   cy="212.42"
   r="1.26"
   id="circle255" />
					</g>
					<g
   class="st21"
   id="g261">
						<path
   class="st4"
   d="M338.71,157.8c0.35-0.35,0.92-0.35,1.27,0c0.35,0.35,0.35,0.92,0,1.27c-0.35,0.35-0.92,0.35-1.27,0        C338.36,158.72,338.36,158.15,338.71,157.8z"
   id="path259" />
					</g>
					<g
   class="st21"
   id="g265">
						<path
   class="st4"
   d="M359.95,177.42c0.22-0.22,0.58-0.22,0.8,0c0.22,0.22,0.22,0.58,0,0.8c-0.22,0.22-0.58,0.22-0.8,0        C359.73,177.99,359.73,177.64,359.95,177.42z"
   id="path263" />
					</g>
					<g
   class="st21"
   id="g269">
						<path
   class="st4"
   d="M362.79,151.46c0.22-0.22,0.58-0.22,0.8,0c0.22,0.22,0.22,0.58,0,0.8c-0.22,0.22-0.58,0.22-0.8,0        C362.57,152.04,362.57,151.68,362.79,151.46z"
   id="path267" />
					</g>
					<g
   class="st21"
   id="g273">
						<circle
   class="st4"
   cx="360.79"
   cy="183.35"
   r="0.56"
   id="circle271" />
					</g>
					<g
   class="st21"
   id="g277">
						<circle
   class="st4"
   cx="307.87"
   cy="195.49"
   r="0.56"
   id="circle275" />
					</g>
					<g
   class="st21"
   id="g281">
						<path
   class="st4"
   d="M407.75,149.52c0.22-0.22,0.58-0.22,0.8,0c0.22,0.22,0.22,0.58,0,0.8c-0.22,0.22-0.58,0.22-0.8,0        C407.53,150.1,407.53,149.74,407.75,149.52z"
   id="path279" />
					</g>
					<g
   class="st21"
   id="g285">
						<path
   class="st4"
   d="M442.27,165.96c0.22-0.22,0.58-0.22,0.8,0c0.22,0.22,0.22,0.58,0,0.8c-0.22,0.22-0.58,0.22-0.8,0        C442.05,166.54,442.05,166.18,442.27,165.96z"
   id="path283" />
					</g>
					<g
   class="st21"
   id="g289">
						<path
   class="st4"
   d="M389.32,226.67c0.22-0.22,0.58-0.22,0.8,0c0.22,0.22,0.22,0.58,0,0.8c-0.22,0.22-0.58,0.22-0.8,0        C389.1,227.24,389.1,226.89,389.32,226.67z"
   id="path287" />
					</g>
					<g
   class="st21"
   id="g293">
						<circle
   class="st4"
   cx="252.96"
   cy="92.11"
   r="0.9"
   id="circle291" />
					</g>
					<g
   class="st21"
   id="g297">
						<path
   class="st4"
   d="M223.28,165.17c-0.02,0-0.04,0-0.06-0.01l-54.63-16.41c-0.11-0.03-0.17-0.15-0.14-0.26        c0.03-0.11,0.14-0.17,0.26-0.14l54.42,16.35l10.03-44.13l-54.24-19.95c-0.11-0.04-0.16-0.16-0.12-0.26        c0.04-0.11,0.16-0.16,0.26-0.12l54.41,20.01c0.1,0.04,0.15,0.14,0.13,0.24l-10.12,44.52c-0.01,0.06-0.05,0.1-0.1,0.13        C223.36,165.16,223.32,165.17,223.28,165.17z"
   id="path295" />
					</g>
					<g
   class="st21"
   id="g301">
						<path
   class="st4"
   d="M307.82,195.74c-0.03,0-0.07-0.01-0.1-0.02l-47.22-25.63c-0.03-0.02-0.06-0.05-0.08-0.08l-27.2-49.46        c-0.05-0.09-0.02-0.21,0.07-0.27l57.33-38.67l8.74-8.74c0.04-0.04,0.1-0.06,0.16-0.06l25.41,1.57        c0.09,0.01,0.16,0.07,0.19,0.16l6.3,25.33c0.03,0.11-0.04,0.22-0.15,0.25c-0.11,0.02-0.22-0.04-0.25-0.15l-6.26-25.18        l-25.16-1.56l-8.7,8.7l-57.21,38.59l27.08,49.25l47.02,25.52l31.34-36.72l6.28-17.95c0.03-0.08,0.1-0.14,0.19-0.14        c0.07,0,0.16,0.05,0.2,0.13l8.38,21.08l8.81-9.9c0.08-0.09,0.21-0.09,0.29-0.02c0.09,0.08,0.09,0.21,0.02,0.29l-8.95,10.05        l6.29,15.81c0.03,0.09,0.01,0.19-0.07,0.24c-0.08,0.05-0.18,0.05-0.25-0.01l-11.84-9.74c-0.04-0.04-0.07-0.09-0.07-0.14        c0-0.06,0.01-0.11,0.05-0.15l5.42-6.09l-8.26-20.76l-6.11,17.47c-0.01,0.02-0.02,0.05-0.04,0.07l-31.48,36.87        C307.94,195.72,307.88,195.74,307.82,195.74z M348.89,168.24l11.06,9.1l-5.92-14.88L348.89,168.24z"
   id="path299" />
					</g>
					<g
   class="st21"
   id="g305">
						<path
   class="st4"
   d="M280.84,226.77c-0.06,0-0.11-0.02-0.15-0.07l-39.12-44.07c-0.04-0.04-0.06-0.1-0.05-0.16        c0.01-0.06,0.04-0.11,0.09-0.14l18.89-12.59c0.05-0.03,0.12-0.04,0.18-0.02c0.06,0.02,0.11,0.07,0.13,0.13l20.24,56.66        c0.03,0.09,0,0.2-0.09,0.25C280.91,226.76,280.88,226.77,280.84,226.77z M242.03,182.54l38.26,43.1l-19.79-55.41        L242.03,182.54z"
   id="path303" />
					</g>
					<g
   class="st21"
   id="g309">
						<path
   class="st4"
   d="M241.72,182.7c-0.05,0-0.1-0.02-0.14-0.06l-18.44-17.54c-0.07-0.06-0.08-0.16-0.04-0.24        c0.04-0.08,0.12-0.13,0.21-0.12l37.17,4.93l16.58-38.53l13.48-49.44c0.03-0.11,0.14-0.17,0.25-0.14        c0.11,0.03,0.17,0.14,0.14,0.25l-13.49,49.46l-16.65,38.7c-0.04,0.08-0.12,0.13-0.22,0.12l-36.7-4.86l17.98,17.1        c0.08,0.08,0.09,0.21,0.01,0.29C241.83,182.68,241.78,182.7,241.72,182.7z"
   id="path307" />
					</g>
					<g
   class="st21"
   id="g313">
						<path
   class="st4"
   d="M301.23,244.61c-0.05,0-0.1-0.02-0.14-0.05l-20.38-17.84c-0.05-0.04-0.07-0.1-0.07-0.16        c0-0.06,0.03-0.12,0.08-0.16l17.99-14.39c0.06-0.05,0.14-0.06,0.21-0.03c0.07,0.03,0.12,0.1,0.12,0.17l2.4,32.23        c0.01,0.08-0.04,0.16-0.11,0.2C301.29,244.6,301.26,244.61,301.23,244.61z M281.16,226.57l19.82,17.35l-2.33-31.34        L281.16,226.57z"
   id="path311" />
					</g>
					<g
   class="st21"
   id="g317">
						<path
   class="st4"
   d="M299.5,73.21c-0.05,0-0.1-0.02-0.14-0.06c-0.08-0.08-0.09-0.21-0.01-0.29l15.66-16.41        c0.08-0.08,0.21-0.08,0.29-0.01c0.08,0.08,0.09,0.21,0.01,0.29l-15.66,16.41C299.61,73.19,299.56,73.21,299.5,73.21z"
   id="path315" />
					</g>
					<g
   class="st21"
   id="g321">
						<path
   class="st4"
   d="M383.67,254.5c-0.05,0-0.1-0.02-0.14-0.06l-47.9-44.61l-36.78,2.54c-0.06,0.01-0.12-0.02-0.17-0.07        l-38.2-42.25L227,148.5l-29.44-26.87l-7.05,33.79c-0.02,0.11-0.13,0.19-0.24,0.16c-0.11-0.02-0.18-0.13-0.16-0.24l7.12-34.14        c0.02-0.07,0.07-0.13,0.14-0.15c0.07-0.02,0.15-0.01,0.2,0.04l29.68,27.09l33.47,21.56c0.02,0.01,0.03,0.02,0.04,0.03        l38.15,42.19l36.77-2.54c0.06-0.01,0.11,0.02,0.15,0.05l47.96,44.67c0.08,0.08,0.09,0.21,0.01,0.29        C383.78,254.48,383.72,254.5,383.67,254.5z"
   id="path319" />
					</g>
					<g
   class="st21"
   id="g325">
						<path
   class="st4"
   d="M277.25,131.44c-0.02,0-0.03,0-0.05-0.01l-43.84-10.79c-0.07-0.02-0.12-0.06-0.14-0.13l-20.45-55.32        c-0.04-0.11,0.02-0.22,0.12-0.26c0.11-0.04,0.22,0.01,0.26,0.12l20.41,55.22l43.74,10.77c0.11,0.03,0.18,0.14,0.15,0.25        C277.42,131.38,277.34,131.44,277.25,131.44z"
   id="path323" />
					</g>
					<g
   class="st21"
   id="g329">
						<path
   class="st4"
   d="M227.11,148.53c-0.09,0-0.17-0.05-0.19-0.14c-0.04-0.11,0.02-0.22,0.13-0.26l50.14-17.09        c0.11-0.04,0.22,0.02,0.26,0.13c0.04,0.11-0.02,0.22-0.13,0.26l-50.14,17.09C227.15,148.52,227.13,148.53,227.11,148.53z"
   id="path327" />
					</g>
					<g
   class="st21"
   id="g333">
						<path
   class="st4"
   d="M280.84,226.57"
   id="path331" />
					</g>
					<g
   class="st21"
   id="g337">
						<path
   class="st4"
   d="M209.01,302.2c-0.05,0-0.1-0.02-0.14-0.06c-0.08-0.08-0.08-0.21,0-0.29l52.95-54.75l18.88-20.68        c0.08-0.08,0.21-0.09,0.29-0.01c0.08,0.08,0.09,0.21,0.01,0.29l-18.89,20.68l-52.95,54.75        C209.12,302.18,209.06,302.2,209.01,302.2z"
   id="path335" />
					</g>
					<g
   class="st21"
   id="g341">
						<path
   class="st4"
   d="M383.67,254.5c-0.01,0-0.02,0-0.04,0l-61.9-11.54c-0.05-0.01-0.1-0.04-0.13-0.08l-22.93-30.58        c-0.05-0.06-0.05-0.15-0.02-0.22l8.94-16.55l-30.53-64.21c-0.04-0.08-0.02-0.17,0.04-0.23c0.06-0.06,0.15-0.08,0.23-0.04        l62.05,27.43c0.1,0.05,0.15,0.17,0.1,0.27s-0.17,0.15-0.27,0.1l-61.55-27.21l30.34,63.8c0.03,0.06,0.03,0.13,0,0.19        l-8.93,16.52l22.81,30.41l61.57,11.48l-1.49-39.31c0-0.07,0.03-0.13,0.08-0.17l60.08-48.18l-12.28,0.29        c-0.01,0-0.04,0-0.07-0.01l-11.84-3.75c-0.04-0.01-0.08-0.04-0.1-0.07l-9.74-12.74c-0.07-0.09-0.05-0.22,0.04-0.29        c0.09-0.07,0.22-0.05,0.29,0.04l9.7,12.69l11.75,3.72l12.86-0.3c0.11,0.01,0.17,0.05,0.2,0.14c0.03,0.08,0,0.18-0.07,0.23        l-60.47,48.5l1.5,39.47c0,0.06-0.02,0.12-0.07,0.16C383.76,254.48,383.72,254.5,383.67,254.5z"
   id="path339" />
					</g>
					<g
   class="st21"
   id="g345">
						<path
   class="st4"
   d="M301.23,244.61c-0.11,0-0.2-0.08-0.2-0.19c-0.01-0.11,0.08-0.21,0.19-0.22l20.41-1.64l13.89-33.01        c0.03-0.08,0.13-0.15,0.21-0.12l46.47,5.1c0.11,0.01,0.19,0.11,0.18,0.23c-0.01,0.11-0.1,0.2-0.23,0.18l-46.31-5.08        l-13.88,32.98c-0.03,0.07-0.1,0.12-0.17,0.13l-20.54,1.65C301.24,244.61,301.23,244.61,301.23,244.61z"
   id="path343" />
					</g>
					<g
   class="st21"
   id="g349">
						<path
   class="st4"
   d="M417.6,162.14c0.22-0.22,0.58-0.22,0.8,0c0.22,0.22,0.22,0.58,0,0.8c-0.22,0.22-0.58,0.22-0.8,0        C417.38,162.72,417.38,162.36,417.6,162.14z"
   id="path347" />
					</g>
					<g
   class="st21"
   id="g353">
						<path
   class="st4"
   d="M429.56,165.86c0.22-0.22,0.58-0.22,0.8,0c0.22,0.22,0.22,0.58,0,0.8c-0.22,0.22-0.58,0.22-0.8,0        C429.34,166.44,429.34,166.08,429.56,165.86z"
   id="path351" />
					</g>
					<g
   class="st21"
   id="g357">
						<path
   class="st4"
   d="M422.03,147.41c0.22-0.22,0.58-0.22,0.8,0c0.22,0.22,0.22,0.58,0,0.8c-0.22,0.22-0.58,0.22-0.8,0        C421.81,147.99,421.81,147.63,422.03,147.41z"
   id="path355" />
					</g>
					<g
   class="st21"
   id="g361">
						<circle
   class="st4"
   cx="397.76"
   cy="174.18"
   r="0.56"
   id="circle359" />
					</g>
					<g
   class="st21"
   id="g365">
						<path
   class="st4"
   d="M376.28,204.63c0.22-0.22,0.58-0.22,0.8,0c0.22,0.22,0.22,0.58,0,0.8c-0.22,0.22-0.58,0.22-0.8,0        C376.06,205.21,376.06,204.85,376.28,204.63z"
   id="path363" />
					</g>
					<g
   class="st21"
   id="g369">
						<path
   class="st4"
   d="M389.66,227.22c-0.02,0-0.04,0-0.06-0.01l-53.96-17.39c-0.09-0.03-0.15-0.12-0.14-0.22        c0.01-0.1,0.09-0.17,0.18-0.18l40.92-4.65c0.08-0.01,0.16,0.03,0.2,0.1l13.04,22.03c0.04,0.07,0.04,0.17-0.02,0.23        C389.78,227.19,389.72,227.22,389.66,227.22z M336.67,209.72l52.54,16.93l-12.7-21.45L336.67,209.72z"
   id="path367" />
					</g>
					<g
   class="st21"
   id="g373">
						<path
   class="st4"
   d="M431.93,237c-0.04,0-0.09-0.01-0.12-0.04c-0.06-0.04-0.09-0.12-0.08-0.2l10.79-70.64        c0.01-0.1,0.1-0.17,0.2-0.17c0.1,0,0.19,0.06,0.21,0.16l13.49,58.76c0.02,0.09-0.02,0.19-0.11,0.23l-24.28,11.88        C431.99,236.99,431.96,237,431.93,237z M442.76,167.25l-10.57,69.18l23.78-11.63L442.76,167.25z"
   id="path371" />
					</g>
					<g
   class="st21"
   id="g377">
						<path
   class="st4"
   d="M431.93,237c-0.03,0-0.06-0.01-0.08-0.02l-49.76-22.07c-0.1-0.04-0.15-0.16-0.11-0.26l15.59-40.54        c0.01-0.02,0.02-0.05,0.04-0.07l24.73-26.31c0.08-0.08,0.21-0.09,0.29-0.01c0.08,0.08,0.09,0.21,0.01,0.29l-24.7,26.28        l-15.5,40.33l49.45,21.93l33.51-35.64l-22.84-34.64c-0.06-0.09-0.04-0.21,0.04-0.27c0.08-0.07,0.2-0.06,0.28,0.02l58.16,59.06        c0.08,0.08,0.08,0.21,0,0.29c-0.08,0.08-0.21,0.08-0.29,0l-56.68-57.56l21.78,33.02c0.05,0.08,0.04,0.18-0.02,0.25        l-33.73,35.86C432.04,236.98,431.99,237,431.93,237z"
   id="path375" />
					</g>
					<g
   class="st21"
   id="g381">
						<path
   class="st4"
   d="M447.22,278.18c-0.05,0-0.1-0.02-0.13-0.05c-0.05-0.05-0.08-0.12-0.07-0.19l8.99-53.06        c0.02-0.11,0.12-0.19,0.24-0.17c0.11,0.02,0.19,0.12,0.17,0.24l-8.94,52.73l56.34-18.03c0.11-0.03,0.22,0.02,0.26,0.13        s-0.02,0.22-0.13,0.26l-56.66,18.14C447.26,278.18,447.24,278.18,447.22,278.18z"
   id="path379" />
					</g>
					<g
   class="st21"
   id="g385">
						<path
   class="st4"
   d="M455.82,224.52c0.22-0.22,0.58-0.22,0.8,0c0.22,0.22,0.22,0.58,0,0.8c-0.22,0.22-0.58,0.22-0.8,0        C455.6,225.09,455.6,224.74,455.82,224.52z"
   id="path383" />
					</g>
					<g
   class="st21"
   id="g389">
						<path
   class="st4"
   d="M503.88,260.05c-0.04,0-0.09-0.01-0.12-0.04l-47.66-34.92c-0.07-0.05-0.1-0.15-0.07-0.23        c0.03-0.08,0.11-0.14,0.2-0.14c0,0,0,0,0,0l44.56,0.3l9.23-13.7c0.06-0.09,0.19-0.12,0.28-0.06c0.09,0.06,0.12,0.19,0.06,0.28        l-9.11,13.52l64.73,8.95c0.11,0.02,0.19,0.12,0.18,0.23c-0.02,0.11-0.11,0.19-0.23,0.18l-64.8-8.96l2.97,34.37        c0.01,0.08-0.03,0.16-0.1,0.2C503.95,260.04,503.91,260.05,503.88,260.05z M456.85,225.13l46.79,34.28l-2.94-33.99        L456.85,225.13z"
   id="path387" />
					</g>
					<g
   class="st21"
   id="g393">
						<path
   class="st4"
   d="M509.78,211.03c0.22-0.22,0.58-0.22,0.8,0c0.22,0.22,0.22,0.58,0,0.8c-0.22,0.22-0.58,0.22-0.8,0        C509.56,211.6,509.56,211.25,509.78,211.03z"
   id="path391" />
					</g>
					<g
   class="st21"
   id="g397">
						<path
   class="st4"
   d="M507.38,189.44c0.22-0.22,0.58-0.22,0.8,0c0.22,0.22,0.22,0.58,0,0.8c-0.22,0.22-0.58,0.22-0.8,0        C507.16,190.02,507.16,189.66,507.38,189.44z"
   id="path395" />
					</g>
					<g
   class="st21"
   id="g401">
						<circle
   class="st4"
   cx="485.41"
   cy="198.18"
   r="0.56"
   id="circle399" />
					</g>
					<g
   class="st21"
   id="g405">
						<path
   class="st4"
   d="M383.25,253.87c0.22-0.22,0.58-0.22,0.8,0c0.22,0.22,0.22,0.58,0,0.8c-0.22,0.22-0.58,0.22-0.8,0        C383.03,254.45,383.03,254.09,383.25,253.87z"
   id="path403" />
					</g>
					<g
   class="st21"
   id="g409">
						<path
   class="st4"
   d="M335.7,209.83c-0.05,0-0.1-0.02-0.14-0.06c-0.08-0.08-0.09-0.21-0.01-0.29l24.71-25.74l-52.39,11.99        c-0.11,0.03-0.22-0.04-0.25-0.15c-0.02-0.11,0.04-0.22,0.15-0.25l53.06-12.14c0.09-0.02,0.18,0.02,0.22,0.1        c0.04,0.08,0.03,0.18-0.03,0.24l-25.18,26.23C335.81,209.81,335.76,209.83,335.7,209.83z"
   id="path407" />
					</g>
					<g
   class="st21"
   id="g413">
						<path
   class="st4"
   d="M510.17,211.63c-0.03,0-0.07-0.01-0.1-0.02l-24.88-13.19c-0.07-0.04-0.11-0.11-0.11-0.2        c0-0.08,0.06-0.15,0.13-0.18l22.48-8.39c0.11-0.04,0.22,0.01,0.26,0.12c0.04,0.11-0.01,0.22-0.12,0.26l-22.06,8.23        l24.48,12.98c0.1,0.05,0.14,0.18,0.09,0.28C510.32,211.59,510.25,211.63,510.17,211.63z"
   id="path411" />
					</g>
					<g
   class="st21"
   id="g417">
						<circle
   class="st4"
   cx="301.28"
   cy="244.3"
   r="0.56"
   id="circle415" />
					</g>
					<g
   class="st21"
   id="g421">
						<circle
   class="st4"
   cx="262.12"
   cy="247.3"
   r="0.56"
   id="circle419" />
					</g>
				</g>
			</g>
		</g>
		<path
   class="st11"
   d="M279.76,231.57c0,0,0.74,1.73,0.29,3.14c-0.57,1.79-2.72,1.17-2.72,1.17l0.02,0.02    c-0.13-0.07-0.26-0.13-0.39-0.2c-0.26-0.64-1.3-3.06-3.14-4.99c-2.49-2.62-6.12-3.3-6.12-3.3s1.24,1.41,1.25,2.9    c0.01,1.88-2.23,1.95-2.23,1.95l0.05,0.02c-0.16-0.03-0.31-0.06-0.46-0.08c-0.45-0.53-2.19-2.51-4.52-3.77    c-3.18-1.72-6.84-1.24-6.84-1.24s1.62,0.96,2.08,2.37c0.59,1.78-1.52,2.54-1.52,2.54l0.05,0c-0.15,0.02-0.31,0.04-0.47,0.06    c-0.6-0.37-2.86-1.71-5.46-2.19c-3.55-0.65-6.89,0.93-6.89,0.93s1.84,0.41,2.72,1.61c1.11,1.51-0.66,2.89-0.66,2.89l0.01,0    c-0.13,0.06-0.25,0.13-0.38,0.19c-0.67-0.17-3.24-0.74-5.88-0.39c-3.58,0.48-6.26,3.01-6.26,3.01s1.87-0.17,3.08,0.69    c1.52,1.09,0.27,2.95,0.27,2.95l0.07-0.05c-0.12,0.12-0.24,0.23-0.36,0.34c-0.69,0.05-3.31,0.29-5.71,1.44    c-3.26,1.56-5.02,4.8-5.02,4.8s1.73-0.74,3.14-0.29c1.79,0.57,1.17,2.72,1.17,2.72l0.02-0.02c-0.07,0.13-0.13,0.26-0.2,0.39    c-0.64,0.26-3.06,1.3-4.99,3.14c-2.62,2.49-3.3,6.12-3.3,6.12s1.41-1.24,2.9-1.25c1.88-0.01,1.95,2.23,1.95,2.23l0.02-0.05    c-0.03,0.16-0.06,0.31-0.08,0.46c-0.53,0.45-2.51,2.19-3.77,4.52c-1.72,3.17-1.24,6.84-1.24,6.84s0.96-1.62,2.37-2.09    c1.78-0.59,2.54,1.52,2.54,1.52l0-0.05c0.02,0.15,0.04,0.31,0.06,0.47c-0.37,0.6-1.71,2.86-2.19,5.46    c-0.65,3.55,0.93,6.89,0.93,6.89s0.41-1.84,1.61-2.71c1.51-1.11,2.89,0.65,2.89,0.65l0-0.01c0.06,0.13,0.13,0.25,0.19,0.38    c-0.17,0.67-0.74,3.24-0.39,5.88c0.48,3.58,3.01,6.26,3.01,6.26s-0.17-1.87,0.69-3.08c1.09-1.52,2.95-0.27,2.95-0.27l-0.05-0.07    c0.11,0.12,0.23,0.24,0.34,0.36c0.05,0.69,0.29,3.31,1.44,5.71c1.56,3.26,4.8,5.02,4.8,5.02s-0.74-1.73-0.29-3.14    c0.57-1.79,2.72-1.17,2.72-1.17l-0.02-0.01c0.13,0.07,0.26,0.13,0.39,0.2c0.26,0.64,1.3,3.06,3.14,4.99    c2.49,2.62,6.12,3.29,6.12,3.29s-1.24-1.41-1.25-2.9c-0.01-1.88,2.23-1.95,2.23-1.95l-0.05-0.02c0.15,0.03,0.31,0.06,0.46,0.08    c0.44,0.53,2.19,2.51,4.52,3.77c3.18,1.72,6.84,1.24,6.84,1.24s-1.62-0.96-2.08-2.37c-0.59-1.78,1.52-2.54,1.52-2.54l-0.05,0    c0.15-0.02,0.31-0.04,0.47-0.06c0.6,0.37,2.86,1.71,5.46,2.19c3.55,0.65,6.89-0.93,6.89-0.93s-1.84-0.41-2.71-1.61    c-1.11-1.51,0.65-2.89,0.65-2.89l-0.01,0c0.13-0.06,0.25-0.13,0.38-0.19c0.67,0.17,3.24,0.74,5.88,0.39    c3.58-0.48,6.26-3.01,6.26-3.01s-1.87,0.17-3.08-0.69c-1.52-1.09-0.27-2.95-0.27-2.95l-0.07,0.05c0.12-0.12,0.24-0.23,0.36-0.34    c0.69-0.05,3.31-0.29,5.71-1.44c3.26-1.56,5.02-4.8,5.02-4.8s-1.73,0.74-3.14,0.29c-1.79-0.57-1.17-2.72-1.17-2.72l-0.02,0.02    c0.07-0.13,0.13-0.26,0.2-0.39c0.64-0.26,3.06-1.3,4.99-3.14c2.62-2.49,3.3-6.12,3.3-6.12s-1.41,1.24-2.9,1.25    c-1.88,0.01-1.95-2.23-1.95-2.23l-0.02,0.05c0.03-0.15,0.06-0.31,0.08-0.46c0.53-0.44,2.51-2.19,3.77-4.52    c1.72-3.18,1.24-6.84,1.24-6.84s-0.96,1.62-2.37,2.09c-1.78,0.59-2.54-1.52-2.54-1.52l0,0.05c-0.02-0.15-0.04-0.31-0.06-0.47    c0.36-0.58,1.63-2.75,2.14-5.27l-23.8,10.52c0,0.08,0.01,0.16,0.01,0.24c0,7.58-6.16,13.74-13.74,13.74    c-7.58,0-13.74-6.15-13.74-13.74c0-7.58,6.16-13.74,13.74-13.74c2.21,0,4.3,0.54,6.15,1.47l18.85-15.56    c-0.22-0.96-0.54-2.05-1.05-3.11C283,233.33,279.76,231.57,279.76,231.57z"
   id="path429" />
	</g>
	<g
   id="word_mark">
		<path
   class="st4"
   d="M160.39,469.44h-14.06v14.63h-9.37v-49.71c7.81,0,15.62-0.07,23.43-0.07    C184.68,434.29,184.75,469.44,160.39,469.44z M146.33,460.85h14.06c12,0,11.93-17.61,0-17.61h-14.06V460.85z"
   id="path432" />
		<path
   class="st4"
   d="M233.82,459.5c-0.14,12.85-8.02,25.71-25.49,25.71c-17.47,0-25.57-12.57-25.57-25.64s8.38-26.2,25.57-26.2    C225.44,433.36,233.96,446.5,233.82,459.5z M191.99,459.71c0.21,8.17,4.62,16.9,16.33,16.9c11.72,0,16.12-8.81,16.26-16.97    c0.14-8.38-4.54-17.75-16.26-17.75C196.61,441.89,191.78,451.33,191.99,459.71z"
   id="path434" />
		<path
   class="st4"
   d="M272.81,446.36c-1.7-2.84-6.39-5.54-11.79-5.54c-6.96,0-10.3,2.91-10.3,6.6c0,4.33,5.11,5.54,11.08,6.25    c10.37,1.28,20.03,3.98,20.03,15.84c0,11.08-9.8,15.84-20.88,15.84c-10.15,0-17.97-3.12-21.66-12.21l7.81-4.05    c2.2,5.47,7.95,7.88,13.99,7.88c5.89,0,11.43-2.06,11.43-7.46c0-4.69-4.9-6.6-11.5-7.31c-10.16-1.21-19.53-3.91-19.53-15.05    c0-10.23,10.08-14.42,19.24-14.49c7.74,0,15.76,2.2,19.53,9.87L272.81,446.36z"
   id="path436" />
		<path
   class="st4"
   d="M301.93,442.88h-15.76v-8.52c14.34,0,26.49,0,40.9,0v8.52H311.3v41.19h-9.37V442.88z"
   id="path438" />
		<path
   class="st4"
   d="M377.84,434.43v28.48c0,14.7-9.02,22.23-21.52,22.23c-11.93,0-22.09-7.24-22.09-22.23v-28.48h9.3v28.48    c0,8.95,5.11,13.71,12.85,13.71c7.74,0,12.14-5.18,12.14-13.71v-28.48H377.84z"
   id="path440" />
		<path
   class="st4"
   d="M396.38,434.36v41.05h25.57v8.66H387v-49.71H396.38z"
   id="path442" />
		<path
   class="st4"
   d="M463.84,474.69h-25.99l-4.26,9.37h-10.16l22.3-49.71h10.23l22.3,49.71h-10.23L463.84,474.69z M450.85,444.8    l-9.23,21.16h18.46L450.85,444.8z"
   id="path444" />
		<path
   class="st11"
   d="M538.2,477.18c-4.97,4.97-11.57,7.46-18.11,7.46c-16.76,0-25.49-11.72-25.56-25.14    c-0.14-13.28,8.52-25.71,25.56-25.71c6.53,0,13.14,2.49,18.11,7.46l-2.63,2.27c-4.26-4.26-9.87-6.32-15.48-6.32    c-14.49,0-21.94,10.23-21.87,22.16c0.14,11.65,7.53,21.73,21.87,21.73c5.61,0,11.29-2.13,15.55-6.32L538.2,477.18z"
   id="path446" />
		<path
   class="st11"
   d="M595.15,459.29c-0.07,13.07-8.38,25.64-25.07,25.64c-16.69,0-25.07-12.64-25.07-25.78    c0-13.35,8.31-25.57,25.07-25.57C586.84,433.58,595.22,445.86,595.15,459.29z M548.78,459.21c0.07,11.22,7.17,22.16,21.3,22.16    c14.2,0,21.38-10.94,21.38-22.16c0-11.5-7.1-22.09-21.38-22.09C555.81,437.13,548.71,447.5,548.78,459.21z"
   id="path448" />
		<path
   class="st11"
   d="M605.95,434.36l33.45,41.12v-41.12h3.76v49.71h-1.49l-33.52-41.05v41.05h-3.84v-49.71H605.95z"
   id="path450" />
		<path
   class="st11"
   d="M695.28,477.18c-4.97,4.97-11.57,7.46-18.11,7.46c-16.76,0-25.49-11.72-25.56-25.14    c-0.14-13.28,8.52-25.71,25.56-25.71c6.53,0,13.14,2.49,18.11,7.46l-2.63,2.27c-4.26-4.26-9.87-6.32-15.48-6.32    c-14.49,0-21.94,10.23-21.87,22.16c0.14,11.65,7.53,21.73,21.87,21.73c5.61,0,11.29-2.13,15.55-6.32L695.28,477.18z"
   id="path452" />
		<path
   class="st11"
   d="M707.99,457.3h29.12v3.48h-29.12v19.6h31.39v3.69h-35.15v-49.71h34.3v3.62h-30.54V457.3z"
   id="path454" />
		<path
   class="st11"
   d="M751.67,466.88v17.19h-3.84v-49.71c7.24,0,14.56,0,21.8,0c21.59,0,21.59,32.52,0,32.52H751.67z     M751.67,437.91v25.49h17.97c16.55,0,16.55-25.49,0-25.49H751.67z"
   id="path456" />
		<path
   class="st11"
   d="M808.41,437.84h-17.97v-3.41h39.77v3.41h-17.97v46.23h-3.84V437.84z"
   id="path458" />
		<path
   class="st11"
   d="M837.53,484.07v-49.71h3.76v49.71H837.53z"
   id="path460" />
		<path
   class="st11"
   d="M901.72,459.29c-0.07,13.07-8.38,25.64-25.07,25.64c-16.69,0-25.07-12.64-25.07-25.78    c0-13.35,8.31-25.57,25.07-25.57C893.41,433.58,901.79,445.86,901.72,459.29z M855.35,459.21c0.07,11.22,7.17,22.16,21.3,22.16    c14.2,0,21.38-10.94,21.38-22.16c0-11.5-7.1-22.09-21.38-22.09C862.38,437.13,855.28,447.5,855.35,459.21z"
   id="path462" />
		<path
   class="st11"
   d="M912.52,434.36l33.45,41.12v-41.12h3.76v49.71h-1.49l-33.52-41.05v41.05h-3.84v-49.71H912.52z"
   id="path464" />
		<path
   class="st11"
   d="M993.83,443.95c-3.62-5.82-9.45-6.68-15.06-6.75c-5.82,0-15.06,2.13-15.06,10.08c0,6.32,6.82,7.81,15.2,9.37    c9.59,1.85,19.53,3.55,19.53,14.27c-0.07,11.22-11.36,13.92-19.67,13.92c-7.74,0-16.55-3.2-20.38-10.79l3.41-1.7    c3.05,6.04,10.87,9.02,16.97,9.02c6.11,0,15.84-1.7,15.84-10.51c0.07-7.46-8.17-9.09-16.33-10.65    c-9.09-1.78-18.39-3.62-18.39-12.78c-0.21-10.51,10.72-13.78,18.89-13.78c7.1,0,13.28,1.14,18.18,8.45L993.83,443.95z"
   id="path466" />
	</g>
</g>
</svg>
